<?xml version="1.0" encoding="UTF-8"?>
<svg xmlns="http://www.w3.org/2000/svg" xmlns:xlink="http://www.w3.org/1999/xlink" width="510px" height="150px" viewBox="0 0 510 150" version="1.1">
<g id="surface1">
<path style=" stroke:none;fill-rule:nonzero;fill:rgb(11.764706%,54.509807%,32.941177%);fill-opacity:1;" d="M 119.449219 27.363281 C 134.660156 31.230469 142.253906 50.542969 132.257812 62.484375 C 121.933594 74.8125 109.453125 85.335938 97.910156 96.644531 C 95.132812 99.363281 92.824219 98.8125 90.28125 95.976562 C 80.660156 85.253906 70.664062 74.882812 61.265625 63.984375 C 56.929688 58.957031 54.632812 52.875 55.160156 45.738281 C 55.675781 38.554688 58.054688 32.742188 64.652344 29.648438 C 72.386719 26.027344 80.34375 25.078125 87.914062 30.445312 C 90.222656 32.085938 92.496094 33.773438 95.296875 35.800781 C 101.742188 29.074219 110.109375 27.363281 119.449219 27.363281 Z M 119.449219 27.363281 "/>
<path style=" stroke:none;fill-rule:nonzero;fill:rgb(12.54902%,54.901963%,33.725491%);fill-opacity:1;" d="M 48.351562 86.519531 C 51 89.015625 53.367188 91.242188 55.746094 93.46875 C 55.980469 93.28125 56.214844 93.082031 56.449219 92.894531 C 55.5 90.527344 54.023438 88.207031 53.765625 85.769531 C 53.578125 84.023438 54.527344 81.292969 55.851562 80.507812 C 57.105469 79.769531 59.953125 80.402344 61.347656 81.445312 C 68.847656 87.070312 76.019531 93.128906 83.484375 98.8125 C 91.335938 104.800781 92.789062 109.089844 90.949219 118.746094 C 90.398438 121.617188 91.828125 124.875 92.472656 128.648438 C 91.640625 128.835938 90.210938 129.410156 88.769531 129.433594 C 81.292969 129.539062 73.816406 129.539062 66.351562 129.46875 C 65.226562 129.457031 63.796875 129.199219 63.046875 128.496094 C 57.515625 123.339844 51.960938 118.195312 46.746094 112.746094 C 40.863281 106.59375 35.039062 100.335938 29.800781 93.65625 C 27.902344 91.242188 27.234375 87.515625 26.894531 84.304688 C 26.214844 77.753906 25.921875 71.144531 25.945312 64.558594 C 25.945312 62.378906 26.90625 58.863281 28.300781 58.347656 C 30.363281 57.585938 34.582031 58.136719 35.460938 59.601562 C 38.121094 64.007812 40.171875 68.988281 41.390625 74.003906 C 42.5625 78.855469 43.875 83.238281 48.351562 86.519531 Z M 48.351562 86.519531 "/>
<path style=" stroke:none;fill-rule:nonzero;fill:rgb(12.156863%,54.901963%,33.725491%);fill-opacity:1;" d="M 133.804688 93.375 C 141.421875 87.082031 148.453125 80.542969 148.769531 69.503906 C 148.839844 66.832031 149.941406 63.457031 151.804688 61.769531 C 154.019531 59.753906 157.558594 59.214844 160.523438 58.042969 C 161.4375 60.65625 162.773438 63.222656 163.136719 65.90625 C 163.476562 68.496094 162.257812 71.308594 162.667969 73.863281 C 165.339844 90.632812 155.671875 101.34375 144.585938 111.304688 C 139.839844 115.570312 133.113281 118.476562 130.089844 123.632812 C 126.011719 130.59375 120.644531 129.609375 114.84375 129.644531 C 108.726562 129.679688 102.597656 129.65625 97.875 129.65625 C 97.453125 123.996094 97.054688 119.542969 96.785156 115.066406 C 96.433594 109.066406 99.09375 104.34375 103.617188 100.78125 C 107.671875 97.617188 112.183594 95.050781 116.261719 91.921875 C 119.753906 89.238281 123.046875 86.238281 126.199219 83.15625 C 128.484375 80.917969 131.074219 78.316406 133.792969 80.988281 C 135.234375 82.394531 134.71875 85.992188 134.695312 88.59375 C 134.683594 89.71875 133.664062 90.820312 132.796875 92.472656 C 132.292969 93.257812 132.175781 93.539062 131.929688 94.054688 C 131.71875 94.523438 131.742188 94.804688 131.765625 95.085938 C 132.082031 94.863281 132.386719 94.640625 132.972656 94.359375 C 133.429688 93.996094 133.617188 93.679688 133.804688 93.375 Z M 133.804688 93.375 "/>
<path style=" stroke:none;fill-rule:nonzero;fill:rgb(11.764706%,54.509807%,33.333334%);fill-opacity:1;" d="M 216.023438 83.613281 C 213.714844 91.980469 211.40625 100.335938 209.015625 108.972656 C 205.464844 108.972656 201.996094 108.972656 198.199219 108.972656 C 195.925781 100.816406 193.652344 92.660156 191.308594 83.71875 C 190.816406 81.691406 190.382812 80.449219 189.949219 79.195312 C 189.703125 79.242188 189.445312 79.289062 189.1875 79.335938 C 189.304688 80.789062 189.410156 82.253906 189.515625 83.71875 C 189.515625 92.050781 189.515625 100.394531 189.515625 109.007812 C 186.046875 109.007812 182.953125 109.007812 179.566406 109.007812 C 179.566406 92.355469 179.566406 75.902344 179.566406 59.53125 C 180.117188 59.285156 180.421875 59.039062 180.738281 59.027344 C 194.308594 58.089844 194.296875 58.089844 197.988281 71.179688 C 199.722656 77.320312 201.515625 83.449219 203.625 90.761719 C 206.4375 80.800781 209.15625 72.070312 211.300781 63.1875 C 212.167969 59.625 213.726562 58.605469 217.113281 58.875 C 220.453125 59.144531 223.828125 58.933594 227.566406 58.933594 C 227.566406 75.679688 227.566406 92.132812 227.566406 108.949219 C 224.554688 108.949219 221.4375 108.949219 217.6875 108.949219 C 217.6875 100.933594 217.6875 92.8125 217.851562 83.882812 C 218.015625 81.796875 218.015625 80.53125 218.015625 79.265625 C 217.734375 79.242188 217.441406 79.21875 217.148438 79.195312 C 216.773438 80.671875 216.398438 82.136719 216.023438 83.613281 Z M 216.023438 83.613281 "/>
<path style=" stroke:none;fill-rule:nonzero;fill:rgb(14.117648%,55.686277%,34.901962%);fill-opacity:1;" d="M 301.488281 100.664062 C 301.5 103.664062 301.5 106.136719 301.5 109.710938 C 297.960938 109.101562 294.621094 108.515625 289.816406 107.683594 C 280.722656 113.941406 271.582031 109.945312 269.882812 96.949219 C 269.53125 94.324219 269.53125 91.617188 269.71875 88.957031 C 270.691406 75.738281 278.449219 71.121094 291.046875 76.839844 C 291.046875 73.488281 291.046875 70.382812 291.046875 67.289062 C 291.046875 64.300781 291.046875 61.3125 291.046875 58.03125 C 294.632812 58.03125 297.738281 58.03125 301.464844 58.03125 C 301.464844 72.128906 301.464844 86.132812 301.488281 100.664062 M 280.007812 93.5625 C 280.042969 94.101562 280.054688 94.628906 280.101562 95.167969 C 280.429688 98.777344 281.835938 101.4375 285.996094 101.074219 C 289.945312 100.734375 291.421875 98.332031 291.082031 94.476562 C 290.894531 92.355469 291.65625 89.941406 290.871094 88.160156 C 290.039062 86.25 288.011719 83.835938 286.277344 83.636719 C 284.496094 83.4375 281.929688 85.265625 280.675781 86.929688 C 279.691406 88.253906 280.171875 90.679688 280.007812 93.5625 Z M 280.007812 93.5625 "/>
<path style=" stroke:none;fill-rule:nonzero;fill:rgb(13.333334%,55.29412%,34.509805%);fill-opacity:1;" d="M 339.292969 85.933594 C 334.183594 90.550781 334.183594 90.550781 318.996094 91.394531 C 318.996094 97.089844 318.996094 102.867188 318.996094 108.972656 C 315.292969 108.972656 312.175781 108.972656 308.613281 108.972656 C 308.613281 92.601562 308.613281 76.148438 308.613281 59.4375 C 315.914062 59.4375 323.402344 58.640625 330.644531 59.636719 C 340.382812 60.984375 344.707031 70.40625 341.496094 81.246094 C 341.039062 82.757812 340.207031 84.152344 339.292969 85.933594 M 324.140625 82.277344 C 330.5625 81.304688 332.402344 79.042969 331.5 73.265625 C 330.738281 68.425781 326.8125 66.949219 318.679688 68.695312 C 318.679688 71.765625 318.925781 74.941406 318.621094 78.070312 C 318.234375 81.855469 320.003906 82.734375 324.140625 82.277344 Z M 324.140625 82.277344 "/>
<path style=" stroke:none;fill-rule:nonzero;fill:rgb(14.117648%,55.686277%,34.901962%);fill-opacity:1;" d="M 463.160156 80.507812 C 463.957031 90.082031 464.589844 99.269531 465.210938 108.375 C 458.8125 110.085938 457.019531 109.746094 455.261719 106.816406 C 452.4375 107.894531 449.730469 109.335938 446.859375 109.933594 C 440.683594 111.222656 435.738281 108.210938 434.402344 102.796875 C 432.808594 96.363281 435.820312 90.890625 442.183594 89.191406 C 446.074219 88.148438 450.070312 87.527344 454.101562 86.707031 C 452.414062 82.359375 448.3125 80.496094 446.648438 83.273438 C 443.707031 88.183594 439.757812 86.074219 435.703125 86.449219 C 435.304688 80.871094 437.542969 77.34375 442.347656 75.457031 C 450.035156 72.421875 458.707031 74.425781 463.160156 80.507812 M 451.828125 100.957031 C 452.90625 98.695312 453.984375 96.421875 455.050781 94.160156 C 450.269531 94.324219 444.796875 92.238281 444.621094 98.425781 C 444.503906 102.597656 448.148438 101.964844 451.828125 100.957031 Z M 451.828125 100.957031 "/>
<path style=" stroke:none;fill-rule:nonzero;fill:rgb(13.725491%,55.686277%,34.509805%);fill-opacity:1;" d="M 251.367188 95.941406 C 248.601562 95.941406 246.339844 95.941406 243.9375 95.941406 C 245.296875 101.71875 249.515625 103.582031 253.792969 101.320312 C 257.0625 99.597656 260.71875 98.613281 264.679688 97.113281 C 264.820312 105.738281 259.148438 110.191406 250.148438 110.203125 C 239.203125 110.214844 232.96875 103.289062 233.296875 91.464844 C 233.613281 80.285156 240.316406 73.558594 250.523438 74.203125 C 261.175781 74.882812 266.179688 82.148438 264.890625 95.941406 C 260.613281 95.941406 256.242188 95.941406 251.367188 95.941406 M 252.421875 88.628906 C 253.160156 87.914062 254.648438 86.8125 254.507812 86.566406 C 253.746094 85.101562 252.878906 83.273438 251.53125 82.617188 C 247.617188 80.71875 244.664062 83.109375 244.160156 88.640625 C 246.632812 88.640625 249.058594 88.640625 252.421875 88.628906 Z M 252.421875 88.628906 "/>
<path style=" stroke:none;fill-rule:nonzero;fill:rgb(13.333334%,55.29412%,34.509805%);fill-opacity:1;" d="M 349.511719 105.011719 C 344.917969 98.25 345.175781 91.171875 347.039062 84.1875 C 348.878906 77.25 355.441406 73.570312 363.304688 74.25 C 371.203125 74.929688 376.21875 79.148438 377.378906 86.355469 C 377.765625 88.792969 377.871094 91.3125 377.8125 93.785156 C 377.636719 100.171875 375.949219 105.972656 369.445312 108.585938 C 362.378906 111.433594 355.570312 110.953125 349.511719 105.011719 M 357.023438 86.390625 C 356.941406 90.046875 356.34375 93.808594 357.023438 97.324219 C 357.328125 98.917969 360.164062 101.050781 361.875 101.0625 C 363.574219 101.074219 366.140625 99.082031 366.808594 97.382812 C 367.769531 94.863281 367.828125 91.78125 367.488281 89.027344 C 366.714844 82.898438 362.414062 81.527344 357.023438 86.390625 Z M 357.023438 86.390625 "/>
<path style=" stroke:none;fill-rule:nonzero;fill:rgb(14.117648%,55.686277%,34.901962%);fill-opacity:1;" d="M 421.476562 84.855469 C 421.207031 88.160156 421.136719 91.007812 421.148438 93.867188 C 421.171875 100.734375 421.371094 100.921875 430.007812 101.390625 C 428.882812 104.496094 428.636719 108.679688 426.738281 109.664062 C 421.78125 112.242188 413.472656 108.621094 412.007812 103.628906 C 410.941406 99.949219 411.023438 95.917969 410.742188 92.027344 C 410.578125 89.730469 410.71875 87.410156 410.71875 84.726562 C 409.007812 84.269531 407.402344 83.847656 405.667969 83.390625 C 405.667969 80.777344 405.667969 78.316406 405.667969 75.515625 C 407.214844 75.234375 408.703125 74.964844 410.542969 74.625 C 410.542969 71.859375 410.542969 69.058594 410.542969 65.8125 C 414.117188 65.8125 417.339844 65.8125 420.9375 65.8125 C 420.9375 68.625 420.9375 71.425781 420.9375 74.753906 C 423.84375 74.90625 426.421875 75.035156 429.410156 75.199219 C 429.410156 77.917969 429.410156 80.660156 429.410156 83.683594 C 426.925781 83.917969 424.324219 84.152344 421.476562 84.855469 Z M 421.476562 84.855469 "/>
<path style=" stroke:none;fill-rule:nonzero;fill:rgb(15.294118%,56.470591%,35.686275%);fill-opacity:1;" d="M 470.847656 86.789062 C 470.847656 77.003906 470.847656 67.746094 470.847656 58.101562 C 474.304688 58.101562 477.398438 58.101562 480.832031 58.101562 C 480.832031 74.847656 480.832031 91.710938 480.832031 108.949219 C 477.832031 108.949219 474.726562 108.949219 470.847656 108.949219 C 470.847656 101.800781 470.847656 94.558594 470.847656 86.789062 Z M 470.847656 86.789062 "/>
<path style=" stroke:none;fill-rule:nonzero;fill:rgb(16.078432%,56.470591%,36.470589%);fill-opacity:1;" d="M 382.957031 81.539062 C 382.921875 79.265625 382.921875 77.507812 382.921875 75.292969 C 386.4375 75.667969 390.445312 72.785156 392.71875 77.53125 C 395.601562 76.300781 398.578125 75.023438 402.269531 73.453125 C 402.269531 77.402344 402.269531 80.332031 402.269531 83.660156 C 401.378906 83.882812 400.242188 84.316406 399.082031 84.433594 C 395.027344 84.832031 393.175781 86.707031 393.410156 91.054688 C 393.726562 96.890625 393.492188 102.75 393.492188 108.960938 C 390.140625 108.960938 387.046875 108.960938 382.980469 108.960938 C 382.980469 100.054688 382.980469 91.054688 382.957031 81.539062 Z M 382.957031 81.539062 "/>
<path style=" stroke:none;fill-rule:nonzero;fill:rgb(65.490198%,82.352942%,74.117649%);fill-opacity:1;" d="M 189.796875 83.71875 C 189.410156 82.253906 189.304688 80.789062 189.1875 79.335938 C 189.445312 79.289062 189.703125 79.242188 189.949219 79.195312 C 190.382812 80.449219 190.816406 81.691406 191.214844 83.308594 C 190.816406 83.707031 190.441406 83.71875 189.796875 83.71875 Z M 189.796875 83.71875 "/>
<path style=" stroke:none;fill-rule:nonzero;fill:rgb(57.647061%,78.039217%,67.843139%);fill-opacity:1;" d="M 216.304688 83.566406 C 216.398438 82.136719 216.773438 80.671875 217.148438 79.195312 C 217.441406 79.21875 217.734375 79.242188 218.015625 79.265625 C 218.015625 80.53125 218.015625 81.796875 217.851562 83.449219 C 217.324219 83.71875 216.960938 83.613281 216.304688 83.566406 Z M 216.304688 83.566406 "/>
<path style=" stroke:none;fill-rule:nonzero;fill:rgb(99.607843%,100%,99.607843%);fill-opacity:1;" d="M 133.570312 93.175781 C 133.617188 93.679688 133.429688 93.996094 132.84375 94.21875 C 132.433594 94.136719 132.175781 93.855469 132.175781 93.855469 C 132.175781 93.539062 132.292969 93.257812 132.65625 92.847656 C 132.984375 92.777344 133.160156 92.882812 133.570312 93.175781 Z M 133.570312 93.175781 "/>
<path style=" stroke:none;fill-rule:nonzero;fill:rgb(99.607843%,100%,99.607843%);fill-opacity:1;" d="M 132.5625 94.277344 C 132.386719 94.640625 132.082031 94.863281 131.765625 95.085938 C 131.742188 94.804688 131.71875 94.523438 131.929688 94.054688 C 132.175781 93.855469 132.433594 94.136719 132.5625 94.277344 Z M 132.5625 94.277344 "/>
</g>
</svg>
