<?xml version="1.0" encoding="UTF-8"?>
<svg xmlns="http://www.w3.org/2000/svg" xmlns:xlink="http://www.w3.org/1999/xlink" width="60px" height="50px" viewBox="0 0 60 50" version="1.1">
<g id="surface1">
<path style=" stroke:none;fill-rule:nonzero;fill:rgb(10.980392%,54.509807%,32.549021%);fill-opacity:1;" d="M 23.367188 2.976562 C 24.261719 3.152344 25.117188 3.273438 25.941406 3.515625 C 27 3.828125 27.839844 4.519531 28.660156 5.242188 C 29.195312 5.714844 29.785156 6.136719 30.386719 6.515625 C 30.515625 6.597656 30.910156 6.464844 31.03125 6.308594 C 32.132812 4.890625 33.71875 4.273438 35.3125 3.710938 C 36.007812 3.46875 36.800781 3.488281 37.554688 3.417969 C 38.523438 3.332031 39.5 3.1875 40.46875 3.238281 C 41.003906 3.265625 41.566406 3.574219 42.03125 3.878906 C 42.722656 4.328125 43.355469 4.875 43.984375 5.414062 C 44.816406 6.121094 45.535156 6.921875 45.914062 7.988281 C 46.066406 8.414062 46.277344 8.820312 46.460938 9.238281 C 47.066406 10.628906 46.871094 12.078125 46.804688 13.535156 C 46.769531 14.328125 46.6875 15.082031 46.339844 15.800781 C 45.585938 17.355469 44.570312 18.695312 43.28125 19.855469 C 42.640625 20.429688 42.1875 21.210938 41.605469 21.859375 C 41.175781 22.339844 40.667969 22.75 40.207031 23.207031 C 39.523438 23.875 38.847656 24.550781 38.183594 25.238281 C 37.773438 25.664062 37.421875 26.148438 36.988281 26.542969 C 35.929688 27.5 34.847656 28.429688 33.75 29.347656 C 32.917969 30.042969 32.058594 30.710938 31.195312 31.375 C 30.511719 31.902344 29.371094 31.613281 28.828125 30.953125 C 28.269531 30.273438 27.566406 29.71875 26.933594 29.097656 C 26.238281 28.40625 25.558594 27.707031 24.871094 27.011719 C 24.804688 26.945312 24.757812 26.863281 24.6875 26.808594 C 23.703125 26.070312 23.003906 25.054688 22.171875 24.167969 C 21.445312 23.390625 20.628906 22.699219 19.941406 21.890625 C 19.214844 21.03125 18.59375 20.074219 17.925781 19.160156 C 17.375 18.40625 16.742188 17.695312 16.289062 16.882812 C 15.710938 15.835938 15.160156 14.746094 14.820312 13.605469 C 14.59375 12.835938 14.75 11.953125 14.742188 11.121094 C 14.738281 10.589844 14.699219 10.050781 14.769531 9.527344 C 14.847656 8.964844 14.996094 8.402344 15.1875 7.867188 C 15.359375 7.390625 15.585938 6.921875 15.859375 6.492188 C 16.503906 5.472656 17.25 4.59375 18.441406 4.125 C 20.019531 3.503906 21.640625 3.125 23.367188 2.976562 Z M 23.367188 2.976562 "/>
<path style=" stroke:none;fill-rule:nonzero;fill:rgb(10.980392%,54.11765%,32.941177%);fill-opacity:1;" d="M 8.273438 17.339844 C 8.695312 18.96875 9.1875 20.542969 9.476562 22.15625 C 9.746094 23.652344 10.085938 25.054688 11.296875 26.089844 C 12.027344 26.714844 12.75 27.351562 13.441406 28.019531 C 13.949219 28.511719 14.390625 29.070312 14.875 29.589844 C 15.171875 29.910156 15.492188 30.21875 15.804688 30.53125 C 15.847656 30.496094 15.894531 30.460938 15.9375 30.421875 C 15.597656 29.871094 15.253906 29.316406 14.917969 28.761719 C 14.367188 27.851562 14.007812 26.875 13.992188 25.796875 C 13.984375 25.261719 14.605469 24.238281 14.996094 24.113281 C 15.828125 23.839844 16.65625 24.113281 17.191406 24.71875 C 18.03125 25.667969 18.875 26.628906 19.816406 27.472656 C 20.554688 28.132812 21.445312 28.625 22.269531 29.191406 C 23.328125 29.921875 24.394531 30.640625 25.445312 31.378906 C 26.101562 31.835938 26.769531 32.28125 27.371094 32.804688 C 27.734375 33.117188 28.039062 33.53125 28.277344 33.953125 C 28.953125 35.148438 29.664062 36.363281 29.589844 37.800781 C 29.566406 38.316406 29.273438 38.816406 29.109375 39.324219 C 29.011719 39.632812 28.847656 39.953125 28.855469 40.261719 C 28.878906 41.242188 29.007812 42.199219 29.722656 42.984375 C 30.054688 43.347656 29.820312 43.757812 29.328125 43.832031 C 26.382812 44.277344 23.414062 43.953125 20.460938 44.050781 C 19.796875 44.070312 19.132812 44.042969 18.472656 44.054688 C 17.996094 44.0625 17.6875 43.890625 17.578125 43.390625 C 17.421875 42.6875 16.96875 42.167969 16.492188 41.65625 C 15.628906 40.722656 14.5625 40.066406 13.558594 39.320312 C 12.789062 38.75 12.125 38.046875 11.40625 37.410156 C 10.542969 36.648438 9.628906 35.9375 8.816406 35.125 C 8.058594 34.363281 7.390625 33.507812 6.710938 32.671875 C 5.984375 31.785156 5.203125 30.921875 4.601562 29.949219 C 4.046875 29.058594 3.445312 28.164062 3.476562 26.976562 C 3.523438 25.042969 3.457031 23.097656 3.375 21.164062 C 3.328125 19.960938 3.183594 18.761719 3.046875 17.566406 C 2.871094 16.050781 3.960938 14.945312 5.472656 15.300781 C 6.628906 15.570312 7.6875 16.128906 8.273438 17.339844 Z M 8.273438 17.339844 "/>
<path style=" stroke:none;fill-rule:nonzero;fill:rgb(11.372549%,54.509807%,32.941177%);fill-opacity:1;" d="M 57.042969 27.890625 C 56.945312 28.214844 56.925781 28.597656 56.742188 28.855469 C 55.585938 30.472656 54.441406 32.101562 53.195312 33.644531 C 52.3125 34.734375 51.347656 35.789062 50.285156 36.695312 C 48.507812 38.214844 46.582031 39.554688 44.804688 41.078125 C 44.125 41.664062 43.402344 42.300781 43.113281 43.269531 C 42.875 44.0625 42.652344 44.160156 41.859375 44.160156 C 40.996094 44.160156 40.132812 44.175781 39.269531 44.15625 C 38.363281 44.136719 37.460938 44.070312 36.554688 44.058594 C 35.070312 44.042969 33.589844 44.0625 32.105469 44.046875 C 31.785156 44.046875 31.410156 44.0625 31.160156 43.90625 C 30.984375 43.796875 30.855469 43.371094 30.921875 43.15625 C 31.058594 42.707031 31.402344 42.324219 31.550781 41.875 C 31.730469 41.335938 31.820312 40.757812 31.902344 40.1875 C 31.925781 40.015625 31.847656 39.78125 31.734375 39.648438 C 30.894531 38.695312 30.921875 37.601562 31.246094 36.492188 C 31.433594 35.851562 31.691406 35.21875 32.015625 34.640625 C 32.457031 33.847656 32.835938 33.027344 33.726562 32.527344 C 34.628906 32.015625 35.390625 31.261719 36.226562 30.625 C 36.394531 30.5 36.613281 30.445312 36.792969 30.328125 C 37.8125 29.65625 38.867188 29.03125 39.828125 28.28125 C 40.792969 27.53125 41.726562 26.71875 42.539062 25.8125 C 42.988281 25.316406 43.441406 24.835938 43.925781 24.375 C 44.398438 23.933594 45.007812 23.996094 45.445312 24.207031 C 46.035156 24.488281 46.617188 24.898438 46.683594 25.726562 C 46.773438 26.867188 46.296875 27.804688 45.761719 28.738281 C 45.441406 29.292969 45.140625 29.863281 44.925781 30.519531 C 45.238281 30.214844 45.597656 29.945312 45.863281 29.601562 C 46.996094 28.144531 48.429688 26.996094 49.777344 25.757812 C 50.625 24.976562 50.835938 23.894531 51.042969 22.8125 C 51.414062 20.890625 51.757812 18.957031 52.53125 17.144531 C 52.761719 16.605469 53.164062 16.242188 53.707031 15.96875 C 54.355469 15.640625 54.972656 15.375 55.730469 15.40625 C 56.757812 15.445312 57.574219 16.050781 57.570312 17.089844 C 57.5625 18.265625 57.390625 19.441406 57.246094 20.695312 C 57.191406 21.777344 57.183594 22.777344 57.175781 23.777344 C 57.167969 23.863281 57.160156 23.949219 57.128906 24.121094 C 57.085938 25.433594 57.0625 26.664062 57.042969 27.890625 M 44.671875 30.632812 C 44.648438 30.621094 44.625 30.601562 44.601562 30.597656 C 44.59375 30.597656 44.578125 30.625 44.570312 30.640625 C 44.59375 30.652344 44.621094 30.667969 44.671875 30.632812 Z M 44.671875 30.632812 "/>
<path style=" stroke:none;fill-rule:nonzero;fill:rgb(29.411766%,57.647061%,44.313726%);fill-opacity:1;" d="M 57.082031 27.863281 C 57.0625 26.664062 57.085938 25.433594 57.125 24.164062 C 57.132812 25.359375 57.128906 26.597656 57.082031 27.863281 Z M 57.082031 27.863281 "/>
<path style=" stroke:none;fill-rule:nonzero;fill:rgb(52.549022%,71.764708%,61.56863%);fill-opacity:1;" d="M 57.210938 23.746094 C 57.183594 22.777344 57.191406 21.777344 57.21875 20.734375 C 57.242188 21.703125 57.242188 22.707031 57.210938 23.746094 Z M 57.210938 23.746094 "/>
<path style=" stroke:none;fill-rule:nonzero;fill:rgb(0%,0%,0%);fill-opacity:1;" d="M 44.660156 30.65625 C 44.621094 30.667969 44.59375 30.652344 44.570312 30.640625 C 44.578125 30.625 44.59375 30.597656 44.601562 30.597656 C 44.625 30.601562 44.648438 30.621094 44.660156 30.65625 Z M 44.660156 30.65625 "/>
</g>
</svg>
